<?xml version="1.0" standalone="no"?>
<!DOCTYPE svg PUBLIC "-//W3C//DTD SVG 20010904//EN"
 "http://www.w3.org/TR/2001/REC-SVG-20010904/DTD/svg10.dtd">
<svg version="1.0" xmlns="http://www.w3.org/2000/svg"
 width="1536.000000pt" height="768.000000pt" viewBox="0 0 1536.000000 768.000000"
 preserveAspectRatio="xMidYMid meet">

<g transform="translate(0.000000,768.000000) scale(0.100000,-0.100000)"
fill="#000000" stroke="none">
<path d="M0 3840 l0 -2600 7680 0 7680 0 0 2600 0 2600 -7680 0 -7680 0 0
-2600z m8446 1764 c1125 -913 1334 -1084 1334 -1093 0 -17 -39 -43 -52 -35 -7
4 -469 378 -1026 831 -557 453 -1017 823 -1022 823 -5 0 -465 -370 -1022 -823
-557 -453 -1019 -827 -1026 -831 -13 -8 -52 18 -52 35 0 9 127 113 991 814
332 270 716 581 853 693 137 111 252 202 256 202 3 0 348 -277 766 -616z
m-139 -596 c20 -19 23 -31 23 -93 l0 -72 -650 0 -650 0 0 70 c0 59 4 75 22 94
l21 23 606 0 605 0 23 -22z m23 -662 c0 -405 -2 -455 -16 -460 -20 -8 -1248
-8 -1268 0 -14 5 -16 55 -16 460 l0 454 650 0 650 0 0 -454z m-670 -1011 c0
-96 3 -115 15 -115 8 0 15 -7 15 -15 0 -18 -41 -20 -58 -3 -8 8 -12 52 -12
130 0 111 1 118 20 118 19 0 20 -7 20 -115z m172 -11 c2 -99 0 -128 -11 -132
-7 -3 -17 1 -21 8 -5 8 -9 9 -14 1 -4 -6 -18 -11 -31 -11 -48 0 -71 90 -39
152 13 25 20 29 45 26 28 -4 29 -3 29 39 0 36 3 43 19 43 18 0 20 -9 23 -126z
m458 11 c0 -96 3 -115 15 -115 8 0 15 -7 15 -15 0 -18 -41 -20 -58 -3 -8 8
-12 52 -12 130 0 111 1 118 20 118 19 0 20 -7 20 -115z m-1739 69 c21 -22 24
-35 24 -94 0 -59 -3 -72 -24 -94 -20 -22 -33 -26 -78 -26 l-53 0 0 120 0 120
53 0 c45 0 58 -4 78 -26z m511 9 c20 -18 23 -54 8 -83 -7 -13 -6 -21 5 -30 20
-17 19 -69 -2 -92 -12 -13 -30 -18 -70 -18 l-53 0 0 120 0 120 47 0 c29 0 53
-6 65 -17z m1058 -29 c0 -52 11 -51 40 7 13 25 27 39 40 39 26 0 26 -4 -11
-64 -35 -56 -37 -43 20 -138 l23 -38 -24 0 c-17 0 -30 13 -53 53 l-30 52 -3
-52 c-3 -45 -6 -53 -23 -53 -18 0 -19 8 -19 120 0 113 1 120 20 120 17 0 20
-7 20 -46z m260 26 c0 -13 -7 -20 -20 -20 -13 0 -20 7 -20 20 0 13 7 20 20 20
13 0 20 -7 20 -20z m-980 -15 c0 -16 6 -25 15 -25 8 0 15 -7 15 -15 0 -8 -7
-15 -15 -15 -12 0 -15 -13 -15 -60 0 -47 3 -60 15 -60 8 0 15 -7 15 -15 0 -18
-41 -20 -58 -3 -7 7 -12 39 -12 75 0 35 -2 63 -4 63 -3 0 -16 -4 -30 -10 -24
-9 -26 -14 -26 -75 0 -58 -2 -65 -20 -65 -19 0 -20 7 -20 90 0 73 3 90 15 90
8 0 15 -5 15 -12 0 -9 3 -9 12 0 7 7 22 12 35 12 16 0 24 7 29 25 3 14 12 25
20 25 8 0 14 -10 14 -25z m-687 -42 c8 -10 17 -31 19 -48 3 -29 2 -30 -44 -33
-52 -3 -53 -4 -37 -34 9 -16 17 -19 45 -13 26 4 34 2 34 -8 0 -18 -21 -27 -60
-27 -38 0 -70 41 -70 90 0 72 72 118 113 73z m80 -33 c14 -75 19 -78 31 -15 9
50 15 61 33 63 l21 3 -22 -88 c-20 -80 -24 -88 -46 -88 -21 0 -26 8 -42 70
-23 90 -23 107 -1 103 12 -2 20 -18 26 -48z m419 33 c10 -9 18 -30 18 -50 0
-33 -1 -33 -45 -33 -49 0 -50 -1 -34 -32 9 -16 17 -19 45 -13 26 4 34 2 34 -8
0 -37 -81 -37 -109 -1 -60 77 21 200 91 137z m357 -9 c32 -41 25 -121 -13
-146 -24 -17 -65 -8 -85 18 -44 56 -13 154 49 154 19 0 36 -9 49 -26z m410 0
c32 -41 25 -121 -13 -146 -24 -17 -65 -8 -85 18 -44 56 -13 154 49 154 19 0
36 -9 49 -26z m401 -64 c0 -83 -1 -90 -20 -90 -19 0 -20 7 -20 90 0 83 1 90
20 90 19 0 20 -7 20 -90z m160 70 c5 -10 10 -50 10 -89 0 -64 -2 -71 -20 -71
-18 0 -20 7 -20 63 0 69 -10 93 -34 84 -13 -5 -16 -21 -16 -77 0 -63 -2 -70
-20 -70 -18 0 -20 7 -20 88 l0 88 55 2 c44 1 57 -2 65 -18z m170 5 c0 -8 -6
-15 -13 -15 -9 0 -12 -9 -9 -28 4 -33 -19 -62 -49 -62 -10 0 -19 -7 -19 -15 0
-8 8 -15 18 -15 25 0 62 -28 62 -47 0 -29 -31 -53 -69 -53 -56 0 -78 26 -58
65 13 25 16 84 5 91 -14 9 -9 56 9 76 21 24 123 26 123 3z m112 -2 c10 -9 18
-30 18 -50 0 -33 -1 -33 -45 -33 -49 0 -50 -1 -34 -32 9 -16 17 -19 45 -13 26
4 34 2 34 -8 0 -37 -81 -37 -109 -1 -60 77 21 200 91 137z m78 5 c0 -9 3 -9
12 0 17 17 48 15 48 -3 0 -9 -11 -20 -25 -25 -23 -9 -25 -14 -25 -75 0 -58 -2
-65 -20 -65 -19 0 -20 7 -20 90 0 73 3 90 15 90 8 0 15 -5 15 -12z m-3209
-181 c35 -29 497 -405 1026 -835 l963 -782 1012 822 c557 453 1021 829 1032
837 17 13 21 12 38 -9 10 -13 17 -26 16 -30 -3 -8 -43 -40 -733 -601 -220
-179 -617 -501 -883 -717 l-482 -393 -483 393 c-265 216 -532 433 -593 483
-294 239 -999 811 -1013 821 -13 10 -13 15 2 38 10 14 21 26 25 26 5 0 37 -24
73 -53z"/>
<path d="M7413 4583 c-24 -9 -13 -29 56 -105 l70 -75 -74 -73 c-70 -70 -84
-100 -46 -100 9 0 56 39 104 88 l87 87 -93 92 c-50 50 -98 89 -104 86z"/>
<path d="M7610 4250 c0 -20 4 -20 188 -18 158 3 187 5 187 18 0 13 -29 15
-187 18 -184 2 -188 2 -188 -18z"/>
<path d="M7751 3321 c-15 -27 -14 -64 3 -87 22 -29 38 -5 34 51 -3 52 -20 68
-37 36z"/>
<path d="M6460 3310 c0 -88 1 -90 24 -90 36 0 51 26 51 90 0 64 -15 90 -51 90
-23 0 -24 -2 -24 -90z"/>
<path d="M6990 3365 c0 -32 3 -36 23 -33 17 2 22 10 22 33 0 23 -5 31 -22 33
-20 3 -23 -1 -23 -33z"/>
<path d="M6990 3260 c0 -37 2 -41 21 -38 30 4 47 33 33 56 -6 9 -21 18 -33 20
-19 3 -21 -1 -21 -38z"/>
<path d="M6652 3328 c-20 -20 -14 -28 18 -28 28 0 30 2 20 20 -12 23 -21 25
-38 8z"/>
<path d="M7152 3328 c-20 -20 -14 -28 18 -28 28 0 30 2 20 20 -12 23 -21 25
-38 8z"/>
<path d="M7500 3321 c-14 -28 -12 -64 5 -87 15 -19 15 -19 30 0 24 31 13 106
-15 106 -5 0 -14 -9 -20 -19z"/>
<path d="M7910 3321 c-14 -28 -12 -64 5 -87 15 -19 15 -19 30 0 24 31 13 106
-15 106 -5 0 -14 -9 -20 -19z"/>
<path d="M8614 3326 c-8 -22 3 -49 19 -43 6 2 12 14 12 27 0 27 -22 39 -31 16z"/>
<path d="M8605 3180 c-4 -7 -3 -16 3 -22 14 -14 47 -6 47 12 0 18 -40 26 -50
10z"/>
<path d="M8762 3328 c-20 -20 -14 -28 18 -28 28 0 30 2 20 20 -12 23 -21 25
-38 8z"/>
</g>
</svg>
