<?xml version="1.0" standalone="no"?>
<!DOCTYPE svg PUBLIC "-//W3C//DTD SVG 20010904//EN"
 "http://www.w3.org/TR/2001/REC-SVG-20010904/DTD/svg10.dtd">
<svg version="1.0" xmlns="http://www.w3.org/2000/svg"
 width="1000.000000pt" height="1000.000000pt" viewBox="0 0 1000.000000 1000.000000"
 preserveAspectRatio="xMidYMid meet">

<g transform="translate(0.000000,1000.000000) scale(0.100000,-0.100000)"
fill="#000000" stroke="none">
<path d="M0 5000 l0 -5000 5000 0 5000 0 0 5000 0 5000 -5000 0 -5000 0 0
-5000z m6327 3505 c1471 -1195 2185 -1775 2501 -2033 234 -191 220 -170 160
-241 l-28 -32 -77 63 c-43 35 -235 192 -428 348 -305 247 -527 428 -930 755
-88 72 -963 783 -1230 1000 -967 786 -1288 1045 -1295 1045 -5 0 -562 -449
-1237 -998 -675 -549 -1565 -1271 -1976 -1605 l-748 -608 -27 32 c-58 69 -60
61 26 131 42 35 392 320 777 633 385 313 847 689 1026 835 180 146 630 511
1000 812 371 301 782 635 914 742 132 108 243 194 247 193 4 -1 600 -483 1325
-1072z m-149 -1235 c61 -37 72 -69 72 -212 l0 -128 -1250 0 -1250 0 0 128 c0
143 11 175 72 212 32 20 53 20 1178 20 1125 0 1146 0 1178 -20z m72 -1294 l0
-865 -22 -15 c-20 -14 -153 -16 -1228 -16 -1075 0 -1208 2 -1228 16 l-22 15 0
865 0 864 1250 0 1250 0 0 -864z m-1298 -1943 l3 -218 28 -3 c24 -3 28 -7 25
-30 -3 -24 -8 -27 -44 -30 -35 -3 -45 1 -63 24 -20 25 -21 38 -21 250 l0 224
35 0 35 0 2 -217z m320 2 c1 -118 2 -230 2 -247 1 -29 -3 -33 -27 -36 -22 -3
-30 1 -34 17 -5 21 -5 21 -30 1 -39 -30 -86 -26 -116 10 -61 72 -55 249 10
300 28 22 73 26 104 10 18 -10 19 -7 19 68 0 43 3 82 7 85 3 4 19 7 35 7 l28
0 2 -215z m870 -2 l3 -218 28 -3 c24 -3 28 -7 25 -30 -3 -24 -8 -27 -44 -30
-35 -3 -45 1 -63 24 -20 25 -21 38 -21 250 l0 224 35 0 35 0 2 -217z m168 146
c0 -39 -1 -40 -32 -37 -26 2 -34 8 -36 26 -6 37 5 52 38 52 28 0 30 -2 30 -41z
m-3498 6 c49 -35 71 -96 71 -194 1 -103 -14 -159 -51 -196 -38 -38 -61 -45
-158 -45 l-84 0 0 231 0 231 98 -4 c78 -2 102 -7 124 -23z m1004 -9 c30 -30
34 -40 34 -85 0 -42 -5 -57 -24 -76 -24 -24 -24 -25 -6 -35 46 -24 62 -101 36
-165 -21 -49 -59 -65 -161 -65 l-85 0 0 230 0 230 86 0 c84 0 87 -1 120 -34z
m2014 -68 l0 -103 61 103 c58 97 63 102 95 102 19 0 34 -4 34 -10 0 -5 -27
-54 -60 -108 -33 -55 -60 -103 -60 -107 0 -4 29 -54 65 -111 36 -57 65 -109
65 -114 0 -7 -15 -10 -37 -8 -35 3 -40 8 -97 102 l-61 99 -3 -101 -3 -102 -34
0 -35 0 0 230 0 230 35 0 35 0 0 -102z m-1362 35 c3 -38 6 -43 28 -43 20 0 24
-5 24 -30 0 -25 -4 -30 -25 -30 l-25 0 0 -114 0 -115 27 -3 c31 -3 44 -35 21
-49 -24 -16 -77 -10 -98 11 -18 18 -20 33 -20 145 l0 125 -47 -6 c-27 -4 -54
-13 -60 -22 -9 -11 -13 -55 -13 -139 l0 -123 -35 0 -35 0 -2 155 c-1 85 -2
163 -2 173 -1 12 8 18 32 20 24 2 32 -1 32 -12 0 -20 11 -20 36 -1 10 8 36 15
57 15 35 0 37 2 37 33 0 39 17 59 45 55 16 -2 21 -12 23 -45z m-1323 -76 c27
-27 34 -44 40 -89 4 -31 4 -61 0 -67 -3 -7 -42 -11 -92 -11 l-85 0 6 -32 c8
-44 32 -61 76 -54 84 12 85 12 88 -12 3 -18 -4 -26 -32 -37 -137 -58 -237 45
-207 212 15 79 59 123 127 123 39 0 51 -5 79 -33z m165 -102 c29 -144 28 -144
61 23 l22 112 33 0 c25 0 34 -4 34 -16 0 -21 -67 -281 -80 -312 -8 -19 -16
-23 -47 -20 l-38 3 -42 160 c-24 88 -43 166 -43 173 0 9 12 12 37 10 l37 -3
26 -130z m795 102 c27 -27 34 -44 40 -89 4 -31 4 -61 0 -67 -3 -7 -42 -11 -92
-11 l-85 0 6 -32 c8 -44 32 -61 76 -54 84 12 85 12 88 -12 3 -18 -4 -26 -32
-37 -137 -58 -237 45 -207 212 15 79 59 123 127 123 39 0 51 -5 79 -33z m644
18 c43 -22 66 -78 66 -160 0 -116 -44 -175 -129 -175 -86 0 -129 59 -129 175
0 78 16 120 59 154 32 25 92 28 133 6z m780 0 c43 -22 66 -78 66 -160 0 -116
-44 -175 -129 -175 -86 0 -129 59 -129 175 0 78 16 120 59 154 32 25 92 28
133 6z m781 -160 l0 -175 -35 0 -35 0 0 175 0 175 35 0 35 0 0 -175z m140 160
c0 -19 19 -19 44 0 31 23 83 19 111 -10 24 -23 25 -28 25 -175 l0 -150 -35 0
-35 0 0 133 c0 90 -4 137 -12 145 -17 17 -48 15 -70 -5 -16 -14 -18 -33 -18
-145 l0 -128 -34 0 -35 0 -3 168 c-2 92 -2 170 0 175 6 14 62 8 62 -8z m500
-15 c0 -23 -5 -30 -19 -30 -16 0 -18 -6 -14 -43 8 -72 -31 -127 -91 -127 -30
0 -57 -25 -50 -45 3 -8 22 -17 42 -20 117 -20 157 -86 93 -157 -26 -29 -35
-33 -99 -36 -68 -4 -73 -3 -102 26 -16 17 -30 40 -30 52 0 27 26 77 42 83 10
4 11 7 1 18 -17 17 -16 50 2 76 13 18 12 22 -5 38 -43 39 -33 135 17 175 22
17 41 20 119 20 l94 0 0 -30z m225 -3 c27 -27 34 -44 40 -89 4 -31 4 -61 0
-67 -3 -7 -42 -11 -92 -11 l-85 0 6 -32 c8 -44 32 -61 76 -54 84 12 85 12 88
-12 3 -18 -4 -26 -32 -37 -137 -58 -237 45 -207 212 15 79 59 123 127 123 39
0 51 -5 79 -33z m165 18 c0 -19 11 -19 36 0 23 18 61 19 66 3 3 -7 2 -23 0
-35 -3 -19 -11 -23 -38 -23 -23 0 -37 -6 -44 -19 -5 -11 -10 -74 -10 -140 l0
-121 -34 0 -35 0 -3 168 c-2 92 -2 170 0 175 6 14 62 8 62 -8z m-5539 -870
c413 -335 790 -641 837 -680 733 -598 2358 -1915 2362 -1915 3 0 32 22 65 49
320 259 2562 2081 2700 2193 154 126 917 746 1128 916 l69 56 19 -25 c11 -13
29 -36 39 -51 l20 -27 -102 -84 c-57 -46 -332 -270 -613 -497 -520 -422 -1246
-1011 -2578 -2093 l-748 -608 -151 123 c-83 68 -225 184 -317 258 -91 75 -443
361 -781 635 -338 274 -649 526 -690 560 -173 142 -546 445 -1020 829 -1167
947 -1082 875 -1068 894 46 63 63 82 69 80 4 -2 346 -277 760 -613z"/>
<path d="M4478 6429 c-41 -24 -22 -56 118 -202 l136 -142 -141 -138 c-84 -82
-141 -145 -141 -156 0 -24 26 -51 47 -51 9 0 66 49 127 108 61 59 141 137 178
172 l67 65 -174 178 c-97 97 -181 177 -188 177 -6 0 -20 -5 -29 -11z"/>
<path d="M4858 5805 c-9 -21 -8 -28 7 -45 17 -19 31 -20 360 -20 329 0 343 1
360 20 15 17 16 24 7 45 l-12 25 -355 0 -355 0 -12 -25z"/>
<path d="M5119 4024 c-19 -23 -24 -152 -7 -184 16 -30 50 -37 72 -15 20 20 23
184 4 203 -17 17 -53 15 -69 -4z"/>
<path d="M2660 3980 l0 -170 41 0 c22 0 48 4 58 10 31 16 46 70 46 160 0 90
-15 144 -46 160 -10 6 -36 10 -58 10 l-41 0 0 -170z"/>
<path d="M3680 4085 l0 -65 34 0 c25 0 39 7 50 22 36 51 8 108 -52 108 l-32 0
0 -65z"/>
<path d="M3680 3886 l0 -76 38 0 c48 0 72 24 72 71 0 49 -19 69 -68 76 l-42 6
0 -77z"/>
<path d="M3026 4018 c-31 -44 -22 -58 40 -58 l56 0 -7 27 c-4 16 -11 34 -17
40 -16 20 -55 15 -72 -9z"/>
<path d="M3986 4018 c-31 -44 -22 -58 40 -58 l56 0 -7 27 c-4 16 -11 34 -17
40 -16 20 -55 15 -72 -9z"/>
<path d="M4649 4024 c-8 -10 -15 -46 -17 -88 -3 -88 11 -121 53 -121 21 0 33
7 42 25 16 32 16 138 0 170 -15 30 -58 38 -78 14z"/>
<path d="M5429 4024 c-8 -10 -15 -46 -17 -88 -3 -88 11 -121 53 -121 21 0 33
7 42 25 16 32 16 138 0 170 -15 30 -58 38 -78 14z"/>
<path d="M6772 4028 c-7 -7 -12 -26 -12 -43 0 -36 15 -55 45 -55 34 0 49 17
49 55 0 21 -6 40 -14 46 -21 12 -54 11 -68 -3z"/>
<path d="M6757 3743 c-11 -11 -8 -48 5 -61 13 -13 66 -16 92 -6 26 10 20 53
-10 64 -29 11 -78 13 -87 3z"/>
<path d="M7056 4018 c-31 -44 -22 -58 40 -58 l56 0 -7 27 c-4 16 -11 34 -17
40 -16 20 -55 15 -72 -9z"/>
</g>
</svg>
